<?xml version="1.0" encoding="UTF-8"?>
<svg width="542px" height="73px" viewBox="0 0 542 73" version="1.1" xmlns="http://www.w3.org/2000/svg" xmlns:xlink="http://www.w3.org/1999/xlink">
    <!-- Generator: Sketch 41.2 (35397) - http://www.bohemiancoding.com/sketch -->
    <title>Group 2</title>
    <desc>Created with Sketch.</desc>
    <defs></defs>
    <g id="Page-1" stroke="none" stroke-width="1" fill="none" fill-rule="evenodd">
        <g id="Group-2">
            <path d="M91.3695652,1 C85.1875602,1 79.4022943,3.75846136 75.5,8.47447273 C71.5977057,3.75846136 65.8124398,1 59.6304348,1 C48.255178,1 39,10.27745 39,21.6818182 C39,41.3009568 73.0451687,69.4518227 74.495758,70.6403432 C74.7871074,70.8803636 75.1435537,71 75.5,71 C75.8564463,71 76.2128926,70.8803636 76.504242,70.6403432 C77.9548313,69.4518227 112,41.3009568 112,21.6818182 C112,10.27745 102.744822,1 91.3695652,1 Z" id="Shape" fill="#DE4F4F"></path>
            <polygon id="I" fill="#000000" points="0.864 71 15.632 71 15.632 1.632 0.864 1.632"></polygon>
            <path d="M195.184,71 L210.056,71 L210.056,1.632 L189.256,1.632 L172.408,43.544 L155.56,1.632 L134.864,1.632 L134.864,71 L149.632,71 L149.632,22.432 L169.184,71 L175.632,71 L195.184,22.432 L195.184,71 Z M223.784,71 L272.872,71 L272.872,58 L238.552,58 L238.552,42.296 L272.144,42.296 L272.144,29.296 L238.552,29.296 L238.552,14.632 L272.872,14.632 L272.872,1.632 L223.784,1.632 L223.784,71 Z M300.432,71 L315.304,71 L315.304,14.632 L335.48,14.632 L335.48,1.632 L280.152,1.632 L280.152,14.632 L300.432,14.632 L300.432,71 Z M344.944,71 L394.032,71 L394.032,58 L359.712,58 L359.712,42.296 L393.304,42.296 L393.304,29.296 L359.712,29.296 L359.712,14.632 L394.032,14.632 L394.032,1.632 L344.944,1.632 L344.944,71 Z M402.248,36.368 C402.248,57.272 417.536,72.248 438.44,72.248 C459.448,72.248 474.736,57.272 474.736,36.368 C474.736,15.464 459.448,0.488 438.44,0.488 C417.536,0.488 402.248,15.464 402.248,36.368 Z M459.552,36.368 C459.552,49.264 451.232,59.144 438.44,59.144 C425.648,59.144 417.432,49.264 417.432,36.368 C417.432,23.368 425.648,13.592 438.44,13.592 C451.232,13.592 459.552,23.368 459.552,36.368 Z M524.344,71 L541.296,71 L525.696,44.584 C533.184,42.816 540.88,36.264 540.88,23.992 C540.88,11.096 532.04,1.632 517.584,1.632 L485.136,1.632 L485.136,71 L499.904,71 L499.904,46.352 L510.72,46.352 L524.344,71 Z M525.8,23.992 C525.8,29.816 521.328,33.352 515.4,33.352 L499.904,33.352 L499.904,14.632 L515.4,14.632 C521.328,14.632 525.8,18.168 525.8,23.992 Z" id="METEOR" fill="#000000"></path>
        </g>
    </g>
</svg>